<svg width="64" height="64" viewBox="0 0 64 64" xmlns="http://www.w3.org/2000/svg">
  <!-- Background -->
  <rect width="64" height="64" fill="#1a1a1a" rx="8"/>
  
  <!-- Building structure -->
  <!-- Left building -->
  <path d="M 12 52 L 12 24 L 20 18 L 20 52 Z" fill="#E5E7EB"/>
  <rect x="14" y="28" width="3" height="4" fill="#374151" opacity="0.4"/>
  <rect x="14" y="35" width="3" height="4" fill="#374151" opacity="0.4"/>
  <rect x="14" y="42" width="3" height="4" fill="#374151" opacity="0.4"/>
  
  <!-- Center tall building -->
  <path d="M 24 52 L 24 14 L 32 14 L 32 52 Z" fill="#F9FAFB"/>
  <rect x="26" y="18" width="2" height="3" fill="#374151" opacity="0.4"/>
  <rect x="26" y="24" width="2" height="3" fill="#374151" opacity="0.4"/>
  <rect x="26" y="30" width="2" height="3" fill="#374151" opacity="0.4"/>
  <rect x="26" y="36" width="2" height="3" fill="#374151" opacity="0.4"/>
  <rect x="26" y="42" width="2" height="3" fill="#374151" opacity="0.4"/>
  
  <!-- Right building -->
  <path d="M 36 52 L 36 26 L 44 20 L 44 52 Z" fill="#E5E7EB"/>
  <rect x="38" y="30" width="3" height="4" fill="#374151" opacity="0.4"/>
  <rect x="38" y="37" width="3" height="4" fill="#374151" opacity="0.4"/>
  <rect x="38" y="44" width="3" height="4" fill="#374151" opacity="0.4"/>
  
  <!-- Golden accent line -->
  <line x1="8" y1="18" x2="48" y2="18" stroke="#fbbf24" stroke-width="2" opacity="0.9"/>
  
  <!-- Base foundation -->
  <rect x="8" y="52" width="48" height="4" fill="#D4AF37" opacity="0.95"/>
</svg>